{"asset":{"version":"2.0","generator":"VECTARY"},"nodes":[{"translation":[0,0,0],"scale":[0.001,0.001,0.001],"rotation":[-0.7071067811865475,0,0,0.7071067811865476],"name":"Jig - baked","children":[1,2,3,4,5,6,7,8,9,10,11,12,14]},{"translation":[0,0,150],"scale":[1,1.0000000000000002,0.8500000000000002],"rotation":[0.7071067811865475,0,0,0.7071067811865476],"name":"Path","mesh":0},{"translation":[0,-2,150],"scale":[1,1.0000000000000002,0.9000000000000002],"rotation":[0.7071067811865475,0,0,0.7071067811865476],"name":"Path","mesh":1},{"translation":[0,-3,150],"scale":[1,1.0000000000000002,1.0500000000000003],"rotation":[0.7071067811865475,0,0,0.7071067811865476],"name":"Path - Stroke","mesh":2},{"translation":[0,-4,150],"scale":[1,1.0000000000000002,0.9000000000000002],"rotation":[0.7071067811865475,0,0,0.7071067811865476],"name":"Path","mesh":3},{"translation":[0,-5,150],"scale":[1,1.0000000000000002,1.0000000000000002],"rotation":[0.7071067811865475,0,0,0.7071067811865476],"name":"Path - Stroke","mesh":4},{"translation":[0,-6,150],"scale":[1,1.0000000000000002,1.0000000000000002],"rotation":[0.7071067811865475,0,0,0.7071067811865476],"name":"Path","mesh":5},{"translation":[0,-7,150],"scale":[1,1.0000000000000002,1.0000000000000002],"rotation":[0.7071067811865475,0,0,0.7071067811865476],"name":"Path - Stroke","mesh":6},{"translation":[0,-8,150],"scale":[1,1.0000000000000002,1.0000000000000002],"rotation":[0.7071067811865475,0,0,0.7071067811865476],"name":"Path","mesh":7},{"translation":[0,-9,150],"scale":[1,1.0000000000000002,1.0000000000000002],"rotation":[0.7071067811865475,0,0,0.7071067811865476],"name":"Path - Stroke","mesh":8},{"translation":[0,-10,150],"scale":[1,1.0000000000000002,1.0000000000000002],"rotation":[0.7071067811865475,0,0,0.7071067811865476],"name":"Path","mesh":9},{"translation":[0,-11,150],"scale":[1,1.0000000000000002,1.0000000000000002],"rotation":[0.7071067811865475,0,0,0.7071067811865476],"name":"Path - Stroke","mesh":10},{"translation":[0,0,150],"scale":[1,1.0000000000000002,1.0000000000000002],"rotation":[0.7071067811865475,0,0,0.7071067811865476],"name":"Group","children":[13]},{"translation":[0,0,12],"scale":[1,1,1],"rotation":[0,0,0,1],"name":"Path - Stroke","mesh":11},{"translation":[0,-13,150],"scale":[1,1.0000000000000002,1.0000000000000002],"rotation":[0.7071067811865475,0,0,0.7071067811865476],"name":"Path - Stroke","mesh":12}],"materials":[{"pbrMetallicRoughness":{"baseColorFactor":[1,0.14198029068573553,0.0036972395789001307,1],"metallicFactor":0,"roughnessFactor":1},"name":"Dover","emissiveFactor":[0,0,0],"extensions":{},"alphaMode":"OPAQUE","doubleSided":true},{"pbrMetallicRoughness":{"baseColorFactor":[1,0.7226724536002546,0.11926401300504741,1],"metallicFactor":0,"roughnessFactor":1},"name":"Fiji","emissiveFactor":[0,0,0],"extensions":{},"alphaMode":"OPAQUE","doubleSided":true},{"pbrMetallicRoughness":{"baseColorFactor":[1,0.4368127538003594,0.0036972395789001307,1],"metallicFactor":0,"roughnessFactor":1},"name":"Tuscany","emissiveFactor":[0,0,0],"extensions":{},"alphaMode":"OPAQUE","doubleSided":true},{"pbrMetallicRoughness":{"baseColorFactor":[0.8433697303921693,0.7817506777739623,0.017936433339950233,1],"metallicFactor":0,"roughnessFactor":1},"name":"Zion","emissiveFactor":[0,0,0],"extensions":{},"alphaMode":"OPAQUE","doubleSided":true},{"pbrMetallicRoughness":{"baseColorFactor":[1,0.4368127538003594,0.0036972395789001307,1],"metallicFactor":0,"roughnessFactor":1},"name":"Electric Glow","emissiveFactor":[0,0,0],"extensions":{},"alphaMode":"OPAQUE","doubleSided":true},{"pbrMetallicRoughness":{"baseColorFactor":[0.05818717747368543,0.052841625522879035,0.0000569217657121931,1],"metallicFactor":0,"roughnessFactor":1},"name":"Baroque","emissiveFactor":[0,0,0],"extensions":{},"alphaMode":"OPAQUE","doubleSided":true},{"pbrMetallicRoughness":{"baseColorFactor":[0.05818717747368543,0.052841625522879035,0.0000569217657121931,1],"metallicFactor":0,"roughnessFactor":1},"name":"Berlin","emissiveFactor":[0,0,0],"extensions":{},"alphaMode":"OPAQUE","doubleSided":true},{"pbrMetallicRoughness":{"baseColorFactor":[0.8433697303921693,0.7817506777739623,0.017936433339950233,0.8],"metallicFactor":0,"roughnessFactor":1},"name":"Glamour","emissiveFactor":[0,0,0],"extensions":{},"alphaMode":"BLEND","doubleSided":true},{"pbrMetallicRoughness":{"baseColorFactor":[1,0.4368127538003594,0.0036972395789001307,1],"metallicFactor":0,"roughnessFactor":1},"name":"Butterfly","emissiveFactor":[0,0,0],"extensions":{},"alphaMode":"OPAQUE","doubleSided":true},{"pbrMetallicRoughness":{"baseColorFactor":[0.05818717747368543,0.052841625522879035,0.0000569217657121931,1],"metallicFactor":0,"roughnessFactor":1},"name":"Simply Elegant","emissiveFactor":[0,0,0],"extensions":{},"alphaMode":"OPAQUE","doubleSided":true},{"pbrMetallicRoughness":{"baseColorFactor":[0.05818717747368543,0.052841625522879035,0.0000569217657121931,1],"metallicFactor":0,"roughnessFactor":1},"name":"Evening Glow","emissiveFactor":[0,0,0],"extensions":{},"alphaMode":"OPAQUE","doubleSided":true},{"pbrMetallicRoughness":{"baseColorFactor":[1,0.4368127538003594,0.0036972395789001307,1],"metallicFactor":0,"roughnessFactor":1},"name":"Esprit","emissiveFactor":[0,0,0],"extensions":{},"alphaMode":"OPAQUE","doubleSided":true},{"pbrMetallicRoughness":{"baseColorFactor":[1,0.14198029068573553,0.0036972395789001307,1],"metallicFactor":0,"roughnessFactor":1},"name":"Charlotte","emissiveFactor":[0,0,0],"extensions":{},"alphaMode":"OPAQUE","doubleSided":true}],"meshes":[{"primitives":[{"mode":4,"attributes":{"POSITION":1,"NORMAL":2,"TEXCOORD_0":3},"material":0,"indices":0}]},{"primitives":[{"mode":4,"attributes":{"POSITION":5,"NORMAL":6,"TEXCOORD_0":7},"material":1,"indices":4}]},{"primitives":[{"mode":4,"attributes":{"POSITION":9,"NORMAL":10,"TEXCOORD_0":11},"material":2,"indices":8}]},{"primitives":[{"mode":4,"attributes":{"POSITION":13,"NORMAL":14,"TEXCOORD_0":15},"material":3,"indices":12}]},{"primitives":[{"mode":4,"attributes":{"POSITION":17,"NORMAL":18,"TEXCOORD_0":19},"material":4,"indices":16}]},{"primitives":[{"mode":4,"attributes":{"POSITION":21,"NORMAL":22,"TEXCOORD_0":23},"material":5,"indices":20}]},{"primitives":[{"mode":4,"attributes":{"POSITION":25,"NORMAL":26,"TEXCOORD_0":27},"material":6,"indices":24}]},{"primitives":[{"mode":4,"attributes":{"POSITION":29,"NORMAL":30,"TEXCOORD_0":31},"material":7,"indices":28}]},{"primitives":[{"mode":4,"attributes":{"POSITION":33,"NORMAL":34,"TEXCOORD_0":35},"material":8,"indices":32}]},{"primitives":[{"mode":4,"attributes":{"POSITION":37,"NORMAL":38,"TEXCOORD_0":39},"material":9,"indices":36}]},{"primitives":[{"mode":4,"attributes":{"POSITION":41,"NORMAL":42,"TEXCOORD_0":43},"material":10,"indices":40}]},{"primitives":[{"mode":4,"attributes":{"POSITION":45,"NORMAL":46,"TEXCOORD_0":47},"material":11,"indices":44}]},{"primitives":[{"mode":4,"attributes":{"POSITION":49,"NORMAL":50,"TEXCOORD_0":51},"material":12,"indices":48}]}],"accessors":[{"bufferView":0,"byteOffset":0,"componentType":5125,"count":618,"type":"SCALAR"},{"bufferView":1,"byteOffset":0,"componentType":5126,"count":385,"max":[80.5,139.5,22.966432571411133],"min":[-130,-101.5,0.20000000298023224],"type":"VEC3"},{"bufferView":2,"byteOffset":0,"componentType":5126,"count":385,"type":"VEC3"},{"bufferView":3,"byteOffset":0,"componentType":5126,"count":385,"type":"VEC2"},{"bufferView":4,"byteOffset":0,"componentType":5125,"count":2148,"type":"SCALAR"},{"bufferView":5,"byteOffset":0,"componentType":5126,"count":1080,"max":[63.32240295410156,65,20.200000762939453],"min":[-62.990997314453125,-122.29269409179688,0.20000000298023224],"type":"VEC3"},{"bufferView":6,"byteOffset":0,"componentType":5126,"count":1080,"type":"VEC3"},{"bufferView":7,"byteOffset":0,"componentType":5126,"count":1080,"type":"VEC2"},{"bufferView":8,"byteOffset":0,"componentType":5125,"count":4320,"type":"SCALAR"},{"bufferView":9,"byteOffset":0,"componentType":5126,"count":2160,"max":[65.32243347167969,67.13249206542969,20.200000762939453],"min":[-64.99124145507812,-124.29379272460938,0.20000000298023224],"type":"VEC3"},{"bufferView":10,"byteOffset":0,"componentType":5126,"count":2160,"type":"VEC3"},{"bufferView":11,"byteOffset":0,"componentType":5126,"count":2160,"type":"VEC2"},{"bufferView":12,"byteOffset":0,"componentType":5125,"count":1080,"type":"SCALAR"},{"bufferView":13,"byteOffset":0,"componentType":5126,"count":546,"max":[-14.346405029296875,2.5,20.200000762939453],"min":[-30.345016479492188,-14.495895385742188,0.20000000298023224],"type":"VEC3"},{"bufferView":14,"byteOffset":0,"componentType":5126,"count":546,"type":"VEC3"},{"bufferView":15,"byteOffset":0,"componentType":5126,"count":546,"type":"VEC2"},{"bufferView":16,"byteOffset":0,"componentType":5125,"count":2232,"type":"SCALAR"},{"bufferView":17,"byteOffset":0,"componentType":5126,"count":1132,"max":[-12.338836669921875,5.09161376953125,20.200000762939453],"min":[-32.34538269042969,-16.496292114257812,0.20000000298023224],"type":"VEC3"},{"bufferView":18,"byteOffset":0,"componentType":5126,"count":1132,"type":"VEC3"},{"bufferView":19,"byteOffset":0,"componentType":5126,"count":1132,"type":"VEC2"},{"bufferView":20,"byteOffset":0,"componentType":5125,"count":1068,"type":"SCALAR"},{"bufferView":21,"byteOffset":0,"componentType":5126,"count":540,"max":[-4.3472747802734375,15.500030517578125,20.200000762939453],"min":[-50.33110046386719,-7.4997406005859375,0.20000000298023224],"type":"VEC3"},{"bufferView":22,"byteOffset":0,"componentType":5126,"count":540,"type":"VEC3"},{"bufferView":23,"byteOffset":0,"componentType":5126,"count":540,"type":"VEC2"},{"bufferView":24,"byteOffset":0,"componentType":5125,"count":2244,"type":"SCALAR"},{"bufferView":25,"byteOffset":0,"componentType":5126,"count":1158,"max":[-3.34228515625,16.500167846679688,20.200000762939453],"min":[-51.4102783203125,-8.507431030273438,0.20000000298023224],"type":"VEC3"},{"bufferView":26,"byteOffset":0,"componentType":5126,"count":1158,"type":"VEC3"},{"bufferView":27,"byteOffset":0,"componentType":5126,"count":1158,"type":"VEC2"},{"bufferView":28,"byteOffset":0,"componentType":5125,"count":1080,"type":"SCALAR"},{"bufferView":29,"byteOffset":0,"componentType":5126,"count":546,"max":[37.65400695800781,2.5,20.200000762939453],"min":[21.655410766601562,-14.495895385742188,0.20000000298023224],"type":"VEC3"},{"bufferView":30,"byteOffset":0,"componentType":5126,"count":546,"type":"VEC3"},{"bufferView":31,"byteOffset":0,"componentType":5126,"count":546,"type":"VEC2"},{"bufferView":32,"byteOffset":0,"componentType":5125,"count":2232,"type":"SCALAR"},{"bufferView":33,"byteOffset":0,"componentType":5126,"count":1188,"max":[39.65437316894531,5.09161376953125,20.200000762939453],"min":[19.6478271484375,-16.496292114257812,0.20000000298023224],"type":"VEC3"},{"bufferView":34,"byteOffset":0,"componentType":5126,"count":1188,"type":"VEC3"},{"bufferView":35,"byteOffset":0,"componentType":5126,"count":1188,"type":"VEC2"},{"bufferView":36,"byteOffset":0,"componentType":5125,"count":1068,"type":"SCALAR"},{"bufferView":37,"byteOffset":0,"componentType":5126,"count":540,"max":[52.191925048828125,15.204666137695312,20.200000762939453],"min":[13.860687255859375,-9.798019409179688,0.20000000298023224],"type":"VEC3"},{"bufferView":38,"byteOffset":0,"componentType":5126,"count":540,"type":"VEC3"},{"bufferView":39,"byteOffset":0,"componentType":5126,"count":540,"type":"VEC2"},{"bufferView":40,"byteOffset":0,"componentType":5125,"count":2256,"type":"SCALAR"},{"bufferView":41,"byteOffset":0,"componentType":5126,"count":1166,"max":[53.30647277832031,16.204910278320312,20.200000762939453],"min":[12.858367919921875,-10.803863525390625,0.20000000298023224],"type":"VEC3"},{"bufferView":42,"byteOffset":0,"componentType":5126,"count":1166,"type":"VEC3"},{"bufferView":43,"byteOffset":0,"componentType":5126,"count":1166,"type":"VEC2"},{"bufferView":44,"byteOffset":0,"componentType":5125,"count":1860,"type":"SCALAR"},{"bufferView":45,"byteOffset":0,"componentType":5126,"count":956,"max":[24.616928100585938,-4.4137725830078125,20.200000762939453],"min":[-6.9951171875,-55.48968505859375,0.20000000298023224],"type":"VEC3"},{"bufferView":46,"byteOffset":0,"componentType":5126,"count":956,"type":"VEC3"},{"bufferView":47,"byteOffset":0,"componentType":5126,"count":956,"type":"VEC2"},{"bufferView":48,"byteOffset":0,"componentType":5125,"count":1260,"type":"SCALAR"},{"bufferView":49,"byteOffset":0,"componentType":5126,"count":782,"max":[29.98291015625,-69.93527221679688,20.200000762939453],"min":[-23.375656127929688,-79.73544311523438,0.20000000298023224],"type":"VEC3"},{"bufferView":50,"byteOffset":0,"componentType":5126,"count":782,"type":"VEC3"},{"bufferView":51,"byteOffset":0,"componentType":5126,"count":782,"type":"VEC2"}],"bufferViews":[{"buffer":0,"byteOffset":0,"byteLength":2472,"target":34963},{"buffer":0,"byteOffset":2472,"byteLength":4620,"target":34962},{"buffer":0,"byteOffset":7092,"byteLength":4620,"target":34962},{"buffer":0,"byteOffset":11712,"byteLength":3080,"target":34962},{"buffer":0,"byteOffset":14792,"byteLength":8592,"target":34963},{"buffer":0,"byteOffset":23384,"byteLength":12960,"target":34962},{"buffer":0,"byteOffset":36344,"byteLength":12960,"target":34962},{"buffer":0,"byteOffset":49304,"byteLength":8640,"target":34962},{"buffer":0,"byteOffset":57944,"byteLength":17280,"target":34963},{"buffer":0,"byteOffset":75224,"byteLength":25920,"target":34962},{"buffer":0,"byteOffset":101144,"byteLength":25920,"target":34962},{"buffer":0,"byteOffset":127064,"byteLength":17280,"target":34962},{"buffer":0,"byteOffset":144344,"byteLength":4320,"target":34963},{"buffer":0,"byteOffset":148664,"byteLength":6552,"target":34962},{"buffer":0,"byteOffset":155216,"byteLength":6552,"target":34962},{"buffer":0,"byteOffset":161768,"byteLength":4368,"target":34962},{"buffer":0,"byteOffset":166136,"byteLength":8928,"target":34963},{"buffer":0,"byteOffset":175064,"byteLength":13584,"target":34962},{"buffer":0,"byteOffset":188648,"byteLength":13584,"target":34962},{"buffer":0,"byteOffset":202232,"byteLength":9056,"target":34962},{"buffer":0,"byteOffset":211288,"byteLength":4272,"target":34963},{"buffer":0,"byteOffset":215560,"byteLength":6480,"target":34962},{"buffer":0,"byteOffset":222040,"byteLength":6480,"target":34962},{"buffer":0,"byteOffset":228520,"byteLength":4320,"target":34962},{"buffer":0,"byteOffset":232840,"byteLength":8976,"target":34963},{"buffer":0,"byteOffset":241816,"byteLength":13896,"target":34962},{"buffer":0,"byteOffset":255712,"byteLength":13896,"target":34962},{"buffer":0,"byteOffset":269608,"byteLength":9264,"target":34962},{"buffer":0,"byteOffset":278872,"byteLength":4320,"target":34963},{"buffer":0,"byteOffset":283192,"byteLength":6552,"target":34962},{"buffer":0,"byteOffset":289744,"byteLength":6552,"target":34962},{"buffer":0,"byteOffset":296296,"byteLength":4368,"target":34962},{"buffer":0,"byteOffset":300664,"byteLength":8928,"target":34963},{"buffer":0,"byteOffset":309592,"byteLength":14256,"target":34962},{"buffer":0,"byteOffset":323848,"byteLength":14256,"target":34962},{"buffer":0,"byteOffset":338104,"byteLength":9504,"target":34962},{"buffer":0,"byteOffset":347608,"byteLength":4272,"target":34963},{"buffer":0,"byteOffset":351880,"byteLength":6480,"target":34962},{"buffer":0,"byteOffset":358360,"byteLength":6480,"target":34962},{"buffer":0,"byteOffset":364840,"byteLength":4320,"target":34962},{"buffer":0,"byteOffset":369160,"byteLength":9024,"target":34963},{"buffer":0,"byteOffset":378184,"byteLength":13992,"target":34962},{"buffer":0,"byteOffset":392176,"byteLength":13992,"target":34962},{"buffer":0,"byteOffset":406168,"byteLength":9328,"target":34962},{"buffer":0,"byteOffset":415496,"byteLength":7440,"target":34963},{"buffer":0,"byteOffset":422936,"byteLength":11472,"target":34962},{"buffer":0,"byteOffset":434408,"byteLength":11472,"target":34962},{"buffer":0,"byteOffset":445880,"byteLength":7648,"target":34962},{"buffer":0,"byteOffset":453528,"byteLength":5040,"target":34963},{"buffer":0,"byteOffset":458568,"byteLength":9384,"target":34962},{"buffer":0,"byteOffset":467952,"byteLength":9384,"target":34962},{"buffer":0,"byteOffset":477336,"byteLength":6256,"target":34962}],"scene":0,"scenes":[{"nodes":[0],"name":"Project Name"}],"extensionsUsed":["KHR_texture_transform"],"buffers":[{"byteLength":483592,"uri":"ProjectName.bin"}]}