<svg width="1400" height="100" viewBox="0 0 1400 100" fill="none" xmlns="http://www.w3.org/2000/svg">
<path d="M15.3257 13.6992C8.42912 10.2005 19.1571 18.8364 0 27V100H200V27C192.5 30 168.582 30.0262 166.284 26.5277C163.985 23.0292 137.931 20.1133 128.736 20.1133C119.54 20.1133 125.67 26.5277 111.111 34.108C96.5517 41.6884 81.9923 34.108 77.3946 34.108C72.7969 34.108 72.0306 22.4458 72.0306 20.1133C72.0306 17.7808 55.9387 9.03443 52.1073 13.6992C48.2759 18.3639 36.7816 13.6992 30.6513 9.03443C24.5211 4.36967 22.2222 17.1979 15.3257 13.6992Z" fill="url(#paint0_linear_78_74)"/>
<path d="M215.326 13.6992C208.429 10.2005 219.157 18.8364 200 27V100H400V27C392.5 30 368.582 30.0262 366.284 26.5277C363.985 23.0292 337.931 20.1133 328.736 20.1133C319.54 20.1133 325.67 26.5277 311.111 34.108C296.552 41.6884 281.992 34.108 277.395 34.108C272.797 34.108 272.031 22.4458 272.031 20.1133C272.031 17.7808 255.939 9.03443 252.107 13.6992C248.276 18.3639 236.782 13.6992 230.651 9.03443C224.521 4.36967 222.222 17.1979 215.326 13.6992Z" fill="url(#paint1_linear_78_74)"/>
<path d="M415.326 13.6992C408.429 10.2005 419.157 18.8364 400 27V100H600V27C592.5 30 568.582 30.0262 566.284 26.5277C563.985 23.0292 537.931 20.1133 528.736 20.1133C519.54 20.1133 525.67 26.5277 511.111 34.108C496.552 41.6884 481.992 34.108 477.395 34.108C472.797 34.108 472.031 22.4458 472.031 20.1133C472.031 17.7808 455.939 9.03443 452.107 13.6992C448.276 18.3639 436.782 13.6992 430.651 9.03443C424.521 4.36967 422.222 17.1979 415.326 13.6992Z" fill="url(#paint2_linear_78_74)"/>
<path d="M615.326 13.6992C608.429 10.2005 619.157 18.8364 600 27V100H800V27C792.5 30 768.582 30.0262 766.284 26.5277C763.985 23.0292 737.931 20.1133 728.736 20.1133C719.54 20.1133 725.67 26.5277 711.111 34.108C696.552 41.6884 681.992 34.108 677.395 34.108C672.797 34.108 672.031 22.4458 672.031 20.1133C672.031 17.7808 655.939 9.03443 652.107 13.6992C648.276 18.3639 636.782 13.6992 630.651 9.03443C624.521 4.36967 622.222 17.1979 615.326 13.6992Z" fill="url(#paint3_linear_78_74)"/>
<path d="M815.326 13.6992C808.429 10.2005 819.157 18.8364 800 27V100H1000V27C992.5 30 968.582 30.0262 966.284 26.5277C963.985 23.0292 937.931 20.1133 928.736 20.1133C919.54 20.1133 925.67 26.5277 911.111 34.108C896.552 41.6884 881.992 34.108 877.395 34.108C872.797 34.108 872.031 22.4458 872.031 20.1133C872.031 17.7808 855.939 9.03443 852.107 13.6992C848.276 18.3639 836.782 13.6992 830.651 9.03443C824.521 4.36967 822.222 17.1979 815.326 13.6992Z" fill="url(#paint4_linear_78_74)"/>
<path d="M1015.33 13.6992C1008.43 10.2005 1019.16 18.8364 1000 27V100H1200V27C1192.5 30 1168.58 30.0262 1166.28 26.5277C1163.98 23.0292 1137.93 20.1133 1128.74 20.1133C1119.54 20.1133 1125.67 26.5277 1111.11 34.108C1096.55 41.6884 1081.99 34.108 1077.39 34.108C1072.8 34.108 1072.03 22.4458 1072.03 20.1133C1072.03 17.7808 1055.94 9.03443 1052.11 13.6992C1048.28 18.3639 1036.78 13.6992 1030.65 9.03443C1024.52 4.36967 1022.22 17.1979 1015.33 13.6992Z" fill="url(#paint5_linear_78_74)"/>
<path d="M1215.33 13.6992C1208.43 10.2005 1219.16 18.8364 1200 27V100H1400V27C1392.5 30 1368.58 30.0262 1366.28 26.5277C1363.98 23.0292 1337.93 20.1133 1328.74 20.1133C1319.54 20.1133 1325.67 26.5277 1311.11 34.108C1296.55 41.6884 1281.99 34.108 1277.39 34.108C1272.8 34.108 1272.03 22.4458 1272.03 20.1133C1272.03 17.7808 1255.94 9.03443 1252.11 13.6992C1248.28 18.3639 1236.78 13.6992 1230.65 9.03443C1224.52 4.36967 1222.22 17.1979 1215.33 13.6992Z" fill="url(#paint6_linear_78_74)"/>
<defs>
<linearGradient id="paint0_linear_78_74" x1="102.5" y1="100" x2="102.5" y2="-2.50001" gradientUnits="userSpaceOnUse">
<stop stop-color="#2461C6"/>
<stop offset="1" stop-color="#386EC7" stop-opacity="0"/>
</linearGradient>
<linearGradient id="paint1_linear_78_74" x1="302.5" y1="100" x2="302.5" y2="-2.50001" gradientUnits="userSpaceOnUse">
<stop stop-color="#2461C6"/>
<stop offset="1" stop-color="#386EC7" stop-opacity="0"/>
</linearGradient>
<linearGradient id="paint2_linear_78_74" x1="502.5" y1="100" x2="502.5" y2="-2.50001" gradientUnits="userSpaceOnUse">
<stop stop-color="#2461C6"/>
<stop offset="1" stop-color="#386EC7" stop-opacity="0"/>
</linearGradient>
<linearGradient id="paint3_linear_78_74" x1="702.5" y1="100" x2="702.5" y2="-2.50001" gradientUnits="userSpaceOnUse">
<stop stop-color="#2461C6"/>
<stop offset="1" stop-color="#386EC7" stop-opacity="0"/>
</linearGradient>
<linearGradient id="paint4_linear_78_74" x1="902.5" y1="100" x2="902.5" y2="-2.50001" gradientUnits="userSpaceOnUse">
<stop stop-color="#2461C6"/>
<stop offset="1" stop-color="#386EC7" stop-opacity="0"/>
</linearGradient>
<linearGradient id="paint5_linear_78_74" x1="1102.5" y1="100" x2="1102.5" y2="-2.50001" gradientUnits="userSpaceOnUse">
<stop stop-color="#2461C6"/>
<stop offset="1" stop-color="#386EC7" stop-opacity="0"/>
</linearGradient>
<linearGradient id="paint6_linear_78_74" x1="1302.5" y1="100" x2="1302.5" y2="-2.50001" gradientUnits="userSpaceOnUse">
<stop stop-color="#2461C6"/>
<stop offset="1" stop-color="#386EC7" stop-opacity="0"/>
</linearGradient>
</defs>
</svg>
