<?xml version="1.0" encoding="utf-8"?>
<!-- Generator: Adobe Illustrator 24.0.2, SVG Export Plug-In . SVG Version: 6.00 Build 0)  -->
<svg version="1.1" id="b6b6fb51-5da5-49d9-a163-13a86b5de1cc"
	 xmlns="http://www.w3.org/2000/svg" xmlns:xlink="http://www.w3.org/1999/xlink" x="0px" y="0px" viewBox="0 0 853.8 726"
	 style="enable-background:new 0 0 853.8 726;" xml:space="preserve">
<style type="text/css">
	.st0{fill:#C2CCD9;}
	.st1{fill:#0B4D88;}
	.st2{fill:#FFCC33;}
	.st3{fill:#CE9F29;}
	.st4{fill:#F37032;}
	.st5{fill:#C6562A;}
	.st6{fill:#FFD366;}
	.st7{fill:#D6AE54;}
	.st8{fill:#F9DEA0;}
	.st9{fill:#FFEBBD;}
	.st10{fill:#FFFFFF;}
	.st11{fill:#5BCE8B;}
	.st12{fill:#439E67;}
	.st13{fill:none;stroke:#FFFFFF;stroke-width:0.6;stroke-miterlimit:10;}
	.st14{fill:#3A8759;}
	.st15{fill:#95E5B5;}
	.st16{fill:none;stroke:#35754F;stroke-width:0.5;stroke-miterlimit:10;}
	.st17{fill:none;stroke:#35754F;stroke-width:0.5;stroke-miterlimit:10;stroke-dasharray:20;}
	.st18{fill:none;stroke:#35754F;stroke-width:0.5;stroke-miterlimit:10;stroke-dasharray:15,1;}
	.st19{fill:none;stroke:#35754F;stroke-width:0.5;stroke-miterlimit:10;stroke-dasharray:23;}
	.st20{fill:#487CB6;}
</style>
<title>treasure</title>
<title>treasure</title>
<g>
	<ellipse class="st0" cx="426.3" cy="594.8" rx="393.5" ry="17.9"/>
	<g>
		<path class="st1" d="M225.5,380.1h59.2l-71.5,214.6h-71.5l67.6-202.9C211.5,384.9,218.1,380.1,225.5,380.1z"/>
		<path class="st1" d="M440.8,308.6h59.2L408.5,583c-2.3,7-8.9,11.7-16.3,11.7H333l91.5-274.4C426.8,313.3,433.4,308.6,440.8,308.6z
			"/>
		<path class="st1" d="M691.3,237.1h71.5L647.6,583c-2.3,7-8.9,11.7-16.3,11.7h-59.2L691.3,237.1z"/>
		<path class="st1" d="M768.9,112.6L662.2,219.1c-3,3-1.8,8.1,2.2,9.5l118.1,39.5c4,1.4,8.1-2,7.5-6.2L768.9,112.6z"/>
	</g>
	<g>
		<g>
			<g>
				<path class="st2" d="M154.1,570.9H90.2c-2.1,0-3.8,1.7-3.8,3.8v16.2c0,2.1,1.7,3.8,3.8,3.8h63.9c2.1,0,3.8-1.7,3.8-3.8v-16.2
					C157.9,572.6,156.2,570.9,154.1,570.9z"/>
			</g>
			<g>
				<path class="st3" d="M154.1,570.9h-32v23.8h32c2.1,0,3.8-1.7,3.8-3.8v-16.2C157.9,572.6,156.2,570.9,154.1,570.9z"/>
			</g>
			<path class="st4" d="M86.4,590.6v0.3c0,2.1,1.7,3.8,3.8,3.8h63.9c2.1,0,3.8-1.7,3.8-3.8v-0.3H86.4z"/>
			<path class="st5" d="M122.1,594.7h32c2.1,0,3.8-1.7,3.8-3.8v-0.3h-35.8V594.7z"/>
		</g>
		<g>
			<g>
				<path class="st2" d="M154.1,547.1H90.2c-2.1,0-3.8,1.7-3.8,3.8v16.2c0,2.1,1.7,3.8,3.8,3.8h63.9c2.1,0,3.8-1.7,3.8-3.8v-16.2
					C157.9,548.8,156.2,547.1,154.1,547.1z"/>
			</g>
			<g>
				<path class="st3" d="M154.1,547.1h-32v23.8h32c2.1,0,3.8-1.7,3.8-3.8v-16.2C157.9,548.8,156.2,547.1,154.1,547.1z"/>
			</g>
			<path class="st4" d="M86.4,566.8v0.3c0,2.1,1.7,3.8,3.8,3.8h63.9c2.1,0,3.8-1.7,3.8-3.8v-0.3H86.4z"/>
			<path class="st5" d="M122.1,570.9h32c2.1,0,3.8-1.7,3.8-3.8v-0.3h-35.8V570.9z"/>
		</g>
		<g>
			<g>
				<path class="st2" d="M255.9,570.9H192c-2.1,0-3.8,1.7-3.8,3.8v16.2c0,2.1,1.7,3.8,3.8,3.8h63.9c2.1,0,3.8-1.7,3.8-3.8v-16.2
					C259.7,572.6,258,570.9,255.9,570.9z"/>
			</g>
			<g>
				<path class="st3" d="M255.9,570.9h-32v23.8h32c2.1,0,3.8-1.7,3.8-3.8v-16.2C259.7,572.6,258,570.9,255.9,570.9z"/>
			</g>
			<path class="st4" d="M188.2,590.6v0.3c0,2.1,1.7,3.8,3.8,3.8h63.9c2.1,0,3.8-1.7,3.8-3.8v-0.3H188.2z"/>
			<path class="st5" d="M223.9,594.7h32c2.1,0,3.8-1.7,3.8-3.8v-0.3h-35.8V594.7z"/>
		</g>
		<g>
			<g>
				<path class="st2" d="M255.9,547.1H192c-2.1,0-3.8,1.7-3.8,3.8v16.2c0,2.1,1.7,3.8,3.8,3.8h63.9c2.1,0,3.8-1.7,3.8-3.8v-16.2
					C259.7,548.8,258,547.1,255.9,547.1z"/>
			</g>
			<g>
				<path class="st3" d="M255.9,547.1h-32v23.8h32c2.1,0,3.8-1.7,3.8-3.8v-16.2C259.7,548.8,258,547.1,255.9,547.1z"/>
			</g>
			<path class="st4" d="M188.2,566.8v0.3c0,2.1,1.7,3.8,3.8,3.8h63.9c2.1,0,3.8-1.7,3.8-3.8v-0.3H188.2z"/>
			<path class="st5" d="M223.9,570.9h32c2.1,0,3.8-1.7,3.8-3.8v-0.3h-35.8V570.9z"/>
		</g>
		<g>
			<g>
				<path class="st2" d="M255.9,523.2H192c-2.1,0-3.8,1.7-3.8,3.8v16.2c0,2.1,1.7,3.8,3.8,3.8h63.9c2.1,0,3.8-1.7,3.8-3.8V527
					C259.7,524.9,258,523.2,255.9,523.2z"/>
			</g>
			<g>
				<path class="st3" d="M255.9,523.2h-32v23.8h32c2.1,0,3.8-1.7,3.8-3.8V527C259.7,524.9,258,523.2,255.9,523.2z"/>
			</g>
			<path class="st4" d="M188.2,542.9v0.3c0,2.1,1.7,3.8,3.8,3.8h63.9c2.1,0,3.8-1.7,3.8-3.8v-0.3H188.2z"/>
			<path class="st5" d="M223.9,547.1h32c2.1,0,3.8-1.7,3.8-3.8v-0.3h-35.8V547.1z"/>
		</g>
		<g>
			<g>
				<path class="st2" d="M207.9,570.9h-63.9c-2.1,0-3.8,1.7-3.8,3.8v16.2c0,2.1,1.7,3.8,3.8,3.8h63.9c2.1,0,3.8-1.7,3.8-3.8v-16.2
					C211.7,572.6,210,570.9,207.9,570.9z"/>
			</g>
			<g>
				<path class="st3" d="M207.9,570.9h-32v23.8h32c2.1,0,3.8-1.7,3.8-3.8v-16.2C211.7,572.6,210,570.9,207.9,570.9z"/>
			</g>
			<path class="st4" d="M140.1,590.6v0.3c0,2.1,1.7,3.8,3.8,3.8h63.9c2.1,0,3.8-1.7,3.8-3.8v-0.3H140.1z"/>
			<path class="st5" d="M175.9,594.7h32c2.1,0,3.8-1.7,3.8-3.8v-0.3h-35.8V594.7z"/>
		</g>
		<g>
			<g>
				<path class="st2" d="M207.7,547.1h-63.9c-2.1,0-3.8,1.7-3.8,3.8v16.2c0,2.1,1.7,3.8,3.8,3.8h63.9c2.1,0,3.8-1.7,3.8-3.8v-16.2
					C211.6,548.8,209.9,547.1,207.7,547.1z"/>
			</g>
			<g>
				<path class="st3" d="M207.7,547.1h-32v23.8h32c2.1,0,3.8-1.7,3.8-3.8v-16.2C211.6,548.8,209.9,547.1,207.7,547.1z"/>
			</g>
			<path class="st4" d="M140,566.8v0.3c0,2.1,1.7,3.8,3.8,3.8h63.9c2.1,0,3.8-1.7,3.8-3.8v-0.3H140z"/>
			<path class="st5" d="M175.8,570.9h32c2.1,0,3.8-1.7,3.8-3.8v-0.3h-35.8V570.9z"/>
		</g>
		<g>
			<g>
				<path class="st2" d="M207.7,523.2h-63.9c-2.1,0-3.8,1.7-3.8,3.8v16.2c0,2.1,1.7,3.8,3.8,3.8h63.9c2.1,0,3.8-1.7,3.8-3.8V527
					C211.6,524.9,209.9,523.2,207.7,523.2z"/>
			</g>
			<g>
				<path class="st3" d="M207.7,523.2h-32v23.8h32c2.1,0,3.8-1.7,3.8-3.8V527C211.6,524.9,209.9,523.2,207.7,523.2z"/>
			</g>
			<path class="st4" d="M140,542.9v0.3c0,2.1,1.7,3.8,3.8,3.8h63.9c2.1,0,3.8-1.7,3.8-3.8v-0.3H140z"/>
			<path class="st5" d="M175.8,547.1h32c2.1,0,3.8-1.7,3.8-3.8v-0.3h-35.8V547.1z"/>
		</g>
		<g>
			<g>
				<path class="st2" d="M202,499.4h-63.9c-2.1,0-3.8,1.7-3.8,3.8v16.2c0,2.1,1.7,3.8,3.8,3.8H202c2.1,0,3.8-1.7,3.8-3.8v-16.2
					C205.8,501.1,204.1,499.4,202,499.4z"/>
			</g>
			<g>
				<path class="st3" d="M202,499.4h-32v23.8h32c2.1,0,3.8-1.7,3.8-3.8v-16.2C205.8,501.1,204.1,499.4,202,499.4z"/>
			</g>
			<path class="st4" d="M134.3,519.1v0.3c0,2.1,1.7,3.8,3.8,3.8H202c2.1,0,3.8-1.7,3.8-3.8v-0.3H134.3z"/>
			<path class="st5" d="M170.1,523.2h32c2.1,0,3.8-1.7,3.8-3.8v-0.3h-35.8V523.2z"/>
		</g>
		<g>
			<g>
				<path class="st2" d="M207.7,475.5h-63.9c-2.1,0-3.8,1.7-3.8,3.8v16.2c0,2.1,1.7,3.8,3.8,3.8h63.9c2.1,0,3.8-1.7,3.8-3.8v-16.2
					C211.6,477.2,209.9,475.5,207.7,475.5z"/>
			</g>
			<g>
				<path class="st3" d="M207.7,475.5h-32v23.8h32c2.1,0,3.8-1.7,3.8-3.8v-16.2C211.6,477.2,209.9,475.5,207.7,475.5z"/>
			</g>
			<path class="st4" d="M140,495.2v0.3c0,2.1,1.7,3.8,3.8,3.8h63.9c2.1,0,3.8-1.7,3.8-3.8v-0.3H140z"/>
			<path class="st5" d="M175.8,499.4h32c2.1,0,3.8-1.7,3.8-3.8v-0.3h-35.8V499.4z"/>
		</g>
	</g>
	<g>
		<path class="st6" d="M723.9,543.9c0-148.5-52.6-138.5-85.2-159.6h-22.1h-22.1c-32.6,21.1-85.2,11.1-85.2,159.6
			c0,10.5,5.8,19.1,1.6,31c-2.5,7.1-2.2,13.3,1.4,16.9c2.9,2.9,7.5,3.6,12.8,2.5c15.8-3.3,45.7,0.5,91.5,0.5c22.9,0,76-3.8,91.5-0.5
			c5.3,1.1,9.9,0.4,12.8-2.5c3.6-3.6,3.9-9.8,1.4-16.9C718.1,563,723.9,554.4,723.9,543.9z"/>
		<path class="st7" d="M660.5,342.4c-2.3-1.1-6.3-1.4-8.8-0.6l-10.7,3.4c-2.5,0.8-6.2,0.2-8.4-1.3l-12-8.7c-2.1-1.5-5.6-1.5-7.7,0
			l-12,8.7c-2.1,1.5-5.9,2.1-8.4,1.3l-10.7-3.4c-2.5-0.8-6.4-0.5-8.8,0.6l-7.9,3.8c-2.3,1.1-2.7,3.5-0.8,5.3l27.8,26.6
			c1.9,1.8,5.5,3.3,8.2,3.3h33.1c2.6,0,6.3-1.5,8.2-3.3l27.8-26.6c1.9-1.8,1.5-4.2-0.8-5.3L660.5,342.4z"/>
		<path class="st8" d="M644.2,389.3H589c-4.4,0-7.9-3.5-7.9-7.9c0-4.4,3.5-7.9,7.9-7.9h55.2c4.4,0,7.9,3.5,7.9,7.9
			C652.1,385.8,648.6,389.3,644.2,389.3z"/>
		<path class="st9" d="M644.2,373.5h-23.9c0,0,0.6,4.7-3.7,9.6c-4.7,5.2-12,6.2-12,6.2h39.7c4.4,0,7.9-3.5,7.9-7.9
			C652.1,377.1,648.6,373.5,644.2,373.5z"/>
		<path class="st7" d="M723.9,543.9c0-57.6-7.9-91.3-19.5-112.3c1.1,6.5,1.8,13.1,1.8,19.9c0,63.2-51.2,114.5-114.5,114.5
			c-32.3,0-61.5-13.5-82.3-35c-0.1,4.2-0.1,8.5-0.1,13c0,10.5,5.8,19.1,1.6,31c-2.5,7.1-2.2,13.3,1.4,16.9c2.9,2.9,7.5,3.6,12.8,2.5
			c15.8-3.3,45.7,0.5,91.5,0.5c22.9,0,76-3.8,91.5-0.5c5.3,1.1,9.9,0.4,12.8-2.5c3.6-3.6,3.9-9.8,1.4-16.9
			C718.1,563,723.9,554.4,723.9,543.9z"/>
		<g>
			<path class="st10" d="M637.5,468c-0.4-0.4-0.8-0.5-1.4-0.5h-10.4c-0.7-3.4-2-6.3-3.9-8.8h14.2c0.6,0,1-0.2,1.4-0.5
				c0.4-0.4,0.5-0.8,0.5-1.4v-6.2c0-0.6-0.2-1-0.5-1.4c-0.4-0.4-0.8-0.5-1.4-0.5h-50.7c-0.6,0-1,0.2-1.4,0.5
				c-0.4,0.4-0.5,0.8-0.5,1.4v8.1c0,0.5,0.2,1,0.6,1.4c0.4,0.4,0.8,0.6,1.4,0.6h8.8c8.6,0,14,2.3,16.3,6.9h-25.2
				c-0.6,0-1,0.2-1.4,0.5c-0.4,0.4-0.5,0.8-0.5,1.4v6.2c0,0.6,0.2,1,0.5,1.4c0.4,0.4,0.8,0.5,1.4,0.5h26c-0.9,3.3-3,5.9-6.3,7.6
				c-3.3,1.7-7.6,2.6-13,2.6h-6.8c-0.5,0-1,0.2-1.4,0.6c-0.4,0.4-0.6,0.8-0.6,1.4v7.7c0,0.5,0.2,1,0.5,1.3
				c7.8,8.3,17.9,19.9,30.4,34.8c0.4,0.5,0.9,0.7,1.5,0.7h11.9c0.9,0,1.4-0.4,1.8-1.1c0.4-0.7,0.3-1.4-0.2-2.1
				c-11.9-14.6-21.2-25.4-28-32.7c6.9-0.8,12.5-3,16.8-6.7c4.3-3.7,6.9-8.4,7.9-14.3h10.2c0.6,0,1-0.2,1.4-0.5
				c0.4-0.4,0.5-0.8,0.5-1.4v-6.2C638,468.8,637.8,468.4,637.5,468z"/>
		</g>
	</g>
	<g>
		<rect x="338.3" y="505.3" class="st11" width="143.1" height="89.4"/>
		<g>
			<rect x="338.3" y="433.8" class="st12" width="143.1" height="71.5"/>
			<rect x="345.7" y="441.4" class="st11" width="128.2" height="56.3"/>
			<ellipse class="st13" cx="409.8" cy="469.5" rx="19.1" ry="28.5"/>
			<path class="st13" d="M362.1,441.4c0,9-7.3,16.2-16.2,16.2"/>
			<path class="st13" d="M345.9,481.5c9,0,16.2,7.3,16.2,16.2"/>
			<path class="st13" d="M457.5,497.7c0-9,7.3-16.2,16.2-16.2"/>
			<path class="st13" d="M473.7,457.6c-9,0-16.2-7.3-16.2-16.2"/>
			<g>
				<path class="st10" d="M417.6,463.5c-0.1-0.1-0.2-0.2-0.4-0.2h-3.1c-0.2-1-0.6-1.9-1.2-2.6h4.3c0.2,0,0.3-0.1,0.4-0.2
					c0.1-0.1,0.2-0.3,0.2-0.4v-1.9c0-0.2-0.1-0.3-0.2-0.4c-0.1-0.1-0.3-0.2-0.4-0.2h-15.2c-0.2,0-0.3,0.1-0.4,0.2
					c-0.1,0.1-0.2,0.2-0.2,0.4v2.4c0,0.2,0.1,0.3,0.2,0.4c0.1,0.1,0.3,0.2,0.4,0.2h2.7c2.6,0,4.2,0.7,4.9,2.1h-7.6
					c-0.2,0-0.3,0.1-0.4,0.2c-0.1,0.1-0.2,0.2-0.2,0.4v1.9c0,0.2,0.1,0.3,0.2,0.4c0.1,0.1,0.3,0.2,0.4,0.2h7.8
					c-0.3,1-0.9,1.8-1.9,2.3c-1,0.5-2.3,0.8-3.9,0.8h-2c-0.2,0-0.3,0.1-0.4,0.2c-0.1,0.1-0.2,0.3-0.2,0.4v2.3c0,0.2,0.1,0.3,0.2,0.4
					c2.3,2.5,5.4,6,9.1,10.4c0.1,0.1,0.3,0.2,0.5,0.2h3.6c0.3,0,0.4-0.1,0.5-0.3c0.1-0.2,0.1-0.4-0.1-0.6c-3.6-4.4-6.4-7.6-8.4-9.8
					c2.1-0.2,3.8-0.9,5-2c1.3-1.1,2.1-2.5,2.4-4.3h3.1c0.2,0,0.3-0.1,0.4-0.2c0.1-0.1,0.2-0.2,0.2-0.4v-1.9
					C417.8,463.7,417.7,463.6,417.6,463.5z"/>
			</g>
		</g>
		<g>
			<path class="st14" d="M345.7,441.4h0.8l-2.5-7.6h-5.7v160.9c0.1,0,0.1,0,0.2,0h59.1h11.9c-6.2,0-11.7-3.3-14.8-8.5l-29.5-88.5
				h-19.6V441.4z"/>
			<path class="st11" d="M352.1,458.2c-1.9,0.7-4,1.2-6.2,1.2v-3.4c1.8,0,3.5-0.4,5.1-1l-4.5-13.5h-0.8v56.3h19.6L352.1,458.2z"/>
			<path class="st15" d="M345.9,459.3c2.2,0,4.2-0.4,6.2-1.2l-1.1-3.2c-1.6,0.6-3.3,1-5.1,1V459.3z"/>
			<g>
				<path class="st15" d="M363.9,497.7h-3.4c0-8-6.5-14.5-14.5-14.5v-3.4C355.8,479.8,363.9,487.8,363.9,497.7z"/>
			</g>
		</g>
		<g>
			<line class="st16" x1="338.3" y1="505.3" x2="481.4" y2="505.3"/>
			<line class="st16" x1="338.3" y1="541.1" x2="481.4" y2="541.1"/>
			<line class="st17" x1="338.3" y1="576.9" x2="481.4" y2="576.9"/>
			<line class="st18" x1="338.3" y1="514.3" x2="481.4" y2="514.3"/>
			<line class="st17" x1="338.3" y1="532.2" x2="481.4" y2="532.2"/>
			<line class="st19" x1="338.3" y1="550" x2="481.4" y2="550"/>
			<line class="st18" x1="338.3" y1="567.9" x2="481.4" y2="567.9"/>
			<line class="st16" x1="338.3" y1="585.8" x2="481.4" y2="585.8"/>
		</g>
	</g>
	<path class="st20" d="M241.8,391.9L305,583c2.3,7,8.9,11.8,16.3,11.8h59.1h11.9c-6.2,0-11.7-3.3-14.8-8.5l-64.8-194.4
		c-2.3-7-8.9-11.7-16.3-11.7h-71.1C232.9,380.1,239.4,384.9,241.8,391.9z"/>
	<path class="st20" d="M615.3,583l-87.2-262.6c-2.3-7-8.9-11.8-16.3-11.8h-59.1h-11.9c6.2,0,11.7,3.3,14.8,8.5L544.3,583
		c2.3,7,8.9,11.7,16.3,11.7h71.1C624.2,594.7,617.7,590,615.3,583z"/>
</g>
</svg>
