<svg width="1000" height="1000" viewBox="0 0 1000 1000" fill="none" xmlns="http://www.w3.org/2000/svg">
<g clip-path="url(#clip0_101_86)">
<g filter="url(#filter0_i_101_86)">
<path d="M280 285.714C280 265.99 295.99 250 315.714 250H565.714C684.061 250 780 345.939 780 464.286V464.286C780 484.01 764.01 500 744.286 500H494.286C375.939 500 280 404.061 280 285.714V285.714Z" fill="url(#paint0_linear_101_86)"/>
</g>
<path d="M315.714 251H565.714C683.509 251 779 346.491 779 464.286C779 483.458 763.458 499 744.286 499H494.286C376.491 499 281 403.509 281 285.714C281 266.542 296.542 251 315.714 251Z" stroke="#10459D" stroke-width="2"/>
<g filter="url(#filter1_i_101_86)">
<path d="M280 734.286C280 754.01 295.99 770 315.714 770H565.714C684.061 770 780 674.061 780 555.714V555.714C780 535.99 764.01 520 744.286 520H494.286C375.939 520 280 615.939 280 734.286V734.286Z" fill="url(#paint1_linear_101_86)"/>
</g>
<path d="M315.714 769H565.714C683.509 769 779 673.509 779 555.714C779 536.542 763.458 521 744.286 521H494.286C376.491 521 281 616.491 281 734.286C281 753.458 296.542 769 315.714 769Z" stroke="#10459D" stroke-width="2"/>
<mask id="path-5-inside-1_101_86" fill="white">
<path d="M1000 500C1000 776.142 776.142 1000 500 1000C223.858 1000 0 776.142 0 500C0 223.858 223.858 0 500 0C776.142 0 1000 223.858 1000 500ZM125 500C125 707.107 292.893 875 500 875C707.107 875 875 707.107 875 500C875 292.893 707.107 125 500 125C292.893 125 125 292.893 125 500Z"/>
</mask>
<path d="M1000 500C1000 776.142 776.142 1000 500 1000C223.858 1000 0 776.142 0 500C0 223.858 223.858 0 500 0C776.142 0 1000 223.858 1000 500ZM125 500C125 707.107 292.893 875 500 875C707.107 875 875 707.107 875 500C875 292.893 707.107 125 500 125C292.893 125 125 292.893 125 500Z" fill="url(#paint2_linear_101_86)" fill-opacity="0.5" stroke="#18159C" stroke-opacity="0.5" stroke-width="10" mask="url(#path-5-inside-1_101_86)"/>
</g>
<defs>
<filter id="filter0_i_101_86" x="280" y="250" width="500" height="250" filterUnits="userSpaceOnUse" color-interpolation-filters="sRGB">
<feFlood flood-opacity="0" result="BackgroundImageFix"/>
<feBlend mode="normal" in="SourceGraphic" in2="BackgroundImageFix" result="shape"/>
<feColorMatrix in="SourceAlpha" type="matrix" values="0 0 0 0 0 0 0 0 0 0 0 0 0 0 0 0 0 0 127 0" result="hardAlpha"/>
<feMorphology radius="5" operator="erode" in="SourceAlpha" result="effect1_innerShadow_101_86"/>
<feOffset/>
<feGaussianBlur stdDeviation="5"/>
<feComposite in2="hardAlpha" operator="arithmetic" k2="-1" k3="1"/>
<feColorMatrix type="matrix" values="0 0 0 0 0.220764 0 0 0 0 0.432572 0 0 0 0 0.779167 0 0 0 1 0"/>
<feBlend mode="normal" in2="shape" result="effect1_innerShadow_101_86"/>
</filter>
<filter id="filter1_i_101_86" x="280" y="520" width="500" height="250" filterUnits="userSpaceOnUse" color-interpolation-filters="sRGB">
<feFlood flood-opacity="0" result="BackgroundImageFix"/>
<feBlend mode="normal" in="SourceGraphic" in2="BackgroundImageFix" result="shape"/>
<feColorMatrix in="SourceAlpha" type="matrix" values="0 0 0 0 0 0 0 0 0 0 0 0 0 0 0 0 0 0 127 0" result="hardAlpha"/>
<feMorphology radius="5" operator="erode" in="SourceAlpha" result="effect1_innerShadow_101_86"/>
<feOffset/>
<feGaussianBlur stdDeviation="5"/>
<feComposite in2="hardAlpha" operator="arithmetic" k2="-1" k3="1"/>
<feColorMatrix type="matrix" values="0 0 0 0 0.220764 0 0 0 0 0.432572 0 0 0 0 0.779167 0 0 0 1 0"/>
<feBlend mode="normal" in2="shape" result="effect1_innerShadow_101_86"/>
</filter>
<linearGradient id="paint0_linear_101_86" x1="140" y1="131" x2="803" y2="608.5" gradientUnits="userSpaceOnUse">
<stop stop-color="#8774FF"/>
<stop offset="1" stop-color="#8774FF" stop-opacity="0.29"/>
</linearGradient>
<linearGradient id="paint1_linear_101_86" x1="140" y1="889" x2="803" y2="411.5" gradientUnits="userSpaceOnUse">
<stop stop-color="#8774FF"/>
<stop offset="1" stop-color="#8774FF" stop-opacity="0.29"/>
</linearGradient>
<linearGradient id="paint2_linear_101_86" x1="0" y1="0" x2="1000" y2="1000" gradientUnits="userSpaceOnUse">
<stop offset="0.078125" stop-color="#5CAEFA"/>
<stop offset="0.588542" stop-color="#051CEC"/>
<stop offset="0.947917" stop-color="#FF47CC"/>
</linearGradient>
<clipPath id="clip0_101_86">
<rect width="1000" height="1000" fill="white"/>
</clipPath>
</defs>
</svg>
