{"asset":{"version":"2.0","generator":"VECTARY"},"nodes":[{"translation":[0,0.0009999999999999996,0.002499999999999995],"scale":[0.01,0.01,0.01],"rotation":[-0.7071067811865475,0,0,0.7071067811865476],"name":"Merged Objects","mesh":0},{"translation":[-0.12224407895455994,0.09494452980616848,2.346192005262904],"scale":[1,1,1],"rotation":[5.551115123125783e-17,-2.7755575615628914e-17,2.7755575615628914e-17,1],"name":"Camera","camera":0}],"materials":[{"pbrMetallicRoughness":{"baseColorFactor":[1,1,1,1],"baseColorTexture":{"index":0,"extensions":{"KHR_texture_transform":{"offset":[0,0],"scale":[1,1],"rotation":0}},"texCoord":0},"metallicFactor":0,"roughnessFactor":0.2},"name":"Maple View","emissiveFactor":[0,0,0],"extensions":{},"alphaMode":"OPAQUE","doubleSided":false}],"textures":[{"sampler":0,"source":0}],"images":[{"uri":"Linear_Gradient_Texture.jpg","mimeType":"image/jpeg"}],"samplers":[{"wrapS":10497,"wrapT":10497}],"meshes":[{"primitives":[{"mode":4,"attributes":{"POSITION":1,"NORMAL":2,"TEXCOORD_0":3},"material":0,"indices":0}]}],"accessors":[{"bufferView":0,"byteOffset":0,"componentType":5125,"count":4440,"type":"SCALAR"},{"bufferView":1,"byteOffset":0,"componentType":5126,"count":1980,"max":[50,2.5,100],"min":[-50,-2.5,0],"type":"VEC3"},{"bufferView":2,"byteOffset":0,"componentType":5126,"count":1980,"type":"VEC3"},{"bufferView":3,"byteOffset":0,"componentType":5126,"count":1980,"type":"VEC2"}],"bufferViews":[{"buffer":0,"byteOffset":0,"byteLength":17760,"target":34963},{"buffer":0,"byteOffset":17760,"byteLength":23760,"target":34962},{"buffer":0,"byteOffset":41520,"byteLength":23760,"target":34962},{"buffer":0,"byteOffset":65280,"byteLength":15840,"target":34962}],"cameras":[{"name":"Camera","type":"orthographic","extras":{"targetDistance":2.3372342568209934},"orthographic":{"xmag":2.4229270805903376,"ymag":1.4738542610042604,"zfar":108.78578033723149,"znear":0.017009403710834065}}],"scene":0,"scenes":[{"nodes":[0,1],"name":"Project Name"}],"extensionsUsed":["KHR_texture_transform"],"buffers":[{"byteLength":81120,"uri":"ProjectName.bin"}]}