{"asset":{"version":"2.0","generator":"VECTARY"},"nodes":[{"translation":[0,0.155,2.842170943040401e-17],"scale":[0.003,0.003,0.00015000000000000001],"rotation":[0,0,0,1],"name":"Tube","mesh":0},{"translation":[0.009000000000000001,0.11,2.1316282072803006e-17],"scale":[0.00030000000000000003,0.00030000000000000003,0.003],"rotation":[0,0,0,1],"name":"Path","mesh":1},{"translation":[0.009000000000000001,0.2,4.263256414560601e-17],"scale":[0.00030000000000000003,0.00030000000000000003,0.003],"rotation":[0,0,0,1],"name":"Path0","mesh":2},{"translation":[0,0.1550000000000002,0.5621001034076542],"scale":[1,1,1],"rotation":[5.551115123125783e-17,-2.7755575615628914e-17,2.7755575615628914e-17,1],"name":"Camera","camera":0}],"materials":[{"pbrMetallicRoughness":{"baseColorFactor":[1,1,1,1],"baseColorTexture":{"index":0,"extensions":{"KHR_texture_transform":{"offset":[0,0],"scale":[1,1],"rotation":0}},"texCoord":0},"metallicFactor":0,"roughnessFactor":0.2},"name":"Maple View","emissiveFactor":[0,0,0],"extensions":{},"alphaMode":"OPAQUE","doubleSided":false},{"pbrMetallicRoughness":{"baseColorFactor":[1,1,1,1],"baseColorTexture":{"index":1,"extensions":{"KHR_texture_transform":{"offset":[0,0],"scale":[1,1],"rotation":0}},"texCoord":0},"metallicFactor":0,"roughnessFactor":1},"name":"Wild Party","emissiveFactor":[0,0,0],"extensions":{},"alphaMode":"OPAQUE","doubleSided":true},{"pbrMetallicRoughness":{"baseColorFactor":[1,1,1,1],"baseColorTexture":{"index":2,"extensions":{"KHR_texture_transform":{"offset":[0,0],"scale":[1,1],"rotation":0}},"texCoord":0},"metallicFactor":0,"roughnessFactor":1},"name":"Xena","emissiveFactor":[0,0,0],"extensions":{},"alphaMode":"OPAQUE","doubleSided":true}],"textures":[{"sampler":0,"source":0},{"sampler":0,"source":1},{"sampler":0,"source":2}],"images":[{"uri":"Linear_Gradient_Texture.jpg","mimeType":"image/jpeg"},{"uri":"Linear_Gradient_Texture_1.jpg","mimeType":"image/jpeg"},{"uri":"Linear_Gradient_Texture_2.jpg","mimeType":"image/jpeg"}],"samplers":[{"wrapS":10497,"wrapT":10497}],"meshes":[{"primitives":[{"mode":4,"attributes":{"POSITION":1,"NORMAL":2,"TEXCOORD_0":3},"material":0,"indices":0}]},{"primitives":[{"mode":4,"attributes":{"POSITION":5,"NORMAL":6,"TEXCOORD_0":7},"material":1,"indices":4}]},{"primitives":[{"mode":4,"attributes":{"POSITION":9,"NORMAL":10,"TEXCOORD_0":11},"material":2,"indices":8}]}],"accessors":[{"bufferView":0,"byteOffset":0,"componentType":5125,"count":1536,"type":"SCALAR"},{"bufferView":1,"byteOffset":0,"componentType":5126,"count":520,"max":[50,50,100],"min":[-50,-50,0],"type":"VEC3"},{"bufferView":2,"byteOffset":0,"componentType":5126,"count":520,"type":"VEC3"},{"bufferView":3,"byteOffset":0,"componentType":5126,"count":520,"type":"VEC2"},{"bufferView":4,"byteOffset":0,"componentType":5125,"count":1452,"type":"SCALAR"},{"bufferView":5,"byteOffset":0,"componentType":5126,"count":732,"max":[250,125,4.199999809265137],"min":[-250,-125,0.20000000298023224],"type":"VEC3"},{"bufferView":6,"byteOffset":0,"componentType":5126,"count":732,"type":"VEC3"},{"bufferView":7,"byteOffset":0,"componentType":5126,"count":732,"type":"VEC2"},{"bufferView":8,"byteOffset":0,"componentType":5125,"count":1452,"type":"SCALAR"},{"bufferView":9,"byteOffset":0,"componentType":5126,"count":732,"max":[250,125,4.199999809265137],"min":[-250,-125,0.20000000298023224],"type":"VEC3"},{"bufferView":10,"byteOffset":0,"componentType":5126,"count":732,"type":"VEC3"},{"bufferView":11,"byteOffset":0,"componentType":5126,"count":732,"type":"VEC2"}],"bufferViews":[{"buffer":0,"byteOffset":0,"byteLength":6144,"target":34963},{"buffer":0,"byteOffset":6144,"byteLength":6240,"target":34962},{"buffer":0,"byteOffset":12384,"byteLength":6240,"target":34962},{"buffer":0,"byteOffset":18624,"byteLength":4160,"target":34962},{"buffer":0,"byteOffset":22784,"byteLength":5808,"target":34963},{"buffer":0,"byteOffset":28592,"byteLength":8784,"target":34962},{"buffer":0,"byteOffset":37376,"byteLength":8784,"target":34962},{"buffer":0,"byteOffset":46160,"byteLength":5856,"target":34962},{"buffer":0,"byteOffset":52016,"byteLength":5808,"target":34963},{"buffer":0,"byteOffset":57824,"byteLength":8784,"target":34962},{"buffer":0,"byteOffset":66608,"byteLength":8784,"target":34962},{"buffer":0,"byteOffset":75392,"byteLength":5856,"target":34962}],"cameras":[{"name":"Camera","type":"orthographic","extras":{"targetDistance":0.5546001034076542},"orthographic":{"xmag":0.574934072407584,"ymag":0.3497294818331847,"zfar":41.03890782027288,"znear":0.01166096640686365}}],"scene":0,"scenes":[{"nodes":[0,1,2,3],"name":"Project Name"}],"extensionsUsed":["KHR_texture_transform"],"buffers":[{"byteLength":81248,"uri":"ProjectName.bin"}]}